{
  "accessors": [
    {
      "name": "Dwarf_2_Low_1_positions",
      "componentType": 5126,
      "count": 7106,
      "min": [
        -0.055156998336315155,
        -0.000598000013269484,
        -0.060759998857975006
      ],
      "max": [
        0.05806199833750725,
        0.20291399955749512,
        0.05463999882340431
      ],
      "type": "VEC3",
      "bufferView": 0,
      "byteOffset": 0
    },
    {
      "name": "Dwarf_2_Low_1_normals",
      "componentType": 5126,
      "count": 7106,
      "min": [
        -0.99993497133255,
        -0.9999909996986389,
        -0.9997079968452454
      ],
      "max": [
        0.9995629787445068,
        0.9983360171318054,
        0.9997869729995728
      ],
      "type": "VEC3",
      "bufferView": 0,
      "byteOffset": 85272
    },
    {
      "name": "Dwarf_2_Low_1_texcoords",
      "componentType": 5126,
      "count": 7106,
      "min": [
        0.00203999993391335,
        0.0041600000113248825
      ],
      "max": [
        0.9939699769020081,
        0.9979599714279175
      ],
      "type": "VEC2",
      "bufferView": 1,
      "byteOffset": 0
    },
    {
      "name": "Dwarf_2_Low_1_0_indices",
      "componentType": 5123,
      "count": 37002,
      "min": [
        0
      ],
      "max": [
        7105
      ],
      "type": "SCALAR",
      "bufferView": 2,
      "byteOffset": 0
    }
  ],
  "asset": {
    "generator": "obj2gltf",
    "version": "2.0"
  },
  "buffers": [
    {
      "name": "Dwarf_2_Low",
      "byteLength": 301396,
      "uri": "data:application/octet-stream;base64,"
    }
  ],
  "bufferViews": [
    {
      "name": "bufferView_0",
      "buffer": 0,
      "byteLength": 170544,
      "byteOffset": 0,
      "byteStride": 12,
      "target": 34962
    },
    {
      "name": "bufferView_1",
      "buffer": 0,
      "byteLength": 56848,
      "byteOffset": 170544,
      "byteStride": 8,
      "target": 34962
    },
    {
      "name": "bufferView_2",
      "buffer": 0,
      "byteLength": 74004,
      "byteOffset": 227392,
      "target": 34963
    }
  ],
  "materials": [
    {
      "name": "default",
      "pbrMetallicRoughness": {
        "baseColorFactor": [
          0.5,
          0.5,
          0.5,
          1
        ],
        "metallicFactor": 0,
        "roughnessFactor": 1
      },
      "emissiveFactor": [
        0,
        0,
        0
      ],
      "alphaMode": "OPAQUE",
      "doubleSided": false
    }
  ],
  "meshes": [
    {
      "name": "Dwarf_2_Low_1",
      "primitives": [
        {
          "attributes": {
            "POSITION": 0,
            "NORMAL": 1,
            "TEXCOORD_0": 2
          },
          "indices": 3,
          "material": 0,
          "mode": 4
        }
      ]
    }
  ],
  "nodes": [
    {
      "name": "Dwarf_2_Low",
      "mesh": 0
    }
  ],
  "scene": 0,
  "scenes": [
    {
      "nodes": [
        0
      ]
    }
  ]
}
